<mxfile>
    <diagram id="G1V3pOo-ynbbTo61WeKQ" name="Page-1">
        <mxGraphModel dx="107" dy="83" grid="1" gridSize="10" guides="1" tooltips="1" connect="1" arrows="1" fold="1" page="1" pageScale="1" pageWidth="827" pageHeight="1169" math="0" shadow="0">
            <root>
                <mxCell id="0"/>
                <mxCell id="1" parent="0"/>
                <mxCell id="2" value="interface TransportFactory" style="rounded=0;whiteSpace=wrap;html=1;" parent="1" vertex="1">
                    <mxGeometry x="520" y="360" width="120" height="40" as="geometry"/>
                </mxCell>
                <mxCell id="3" value="+createBike(): Bike&lt;br&gt;+createCar(): Car" style="rounded=0;whiteSpace=wrap;html=1;" parent="1" vertex="1">
                    <mxGeometry x="520" y="400" width="120" height="40" as="geometry"/>
                </mxCell>
                <mxCell id="4" value="HondaFactory" style="rounded=0;whiteSpace=wrap;html=1;" parent="1" vertex="1">
                    <mxGeometry x="520" y="240" width="120" height="40" as="geometry"/>
                </mxCell>
                <mxCell id="5" value="BMWFactory" style="rounded=0;whiteSpace=wrap;html=1;" parent="1" vertex="1">
                    <mxGeometry x="520" y="500" width="120" height="40" as="geometry"/>
                </mxCell>
                <mxCell id="6" value="+createBike(): Bike&lt;br&gt;+createCar(): Car" style="rounded=0;whiteSpace=wrap;html=1;" parent="1" vertex="1">
                    <mxGeometry x="520" y="540" width="120" height="40" as="geometry"/>
                </mxCell>
                <mxCell id="7" value="+createBike(): Bike&lt;br&gt;+createCar(): Car" style="rounded=0;whiteSpace=wrap;html=1;" parent="1" vertex="1">
                    <mxGeometry x="520" y="280" width="120" height="40" as="geometry"/>
                </mxCell>
                <mxCell id="16" value="HondaCar" style="rounded=0;whiteSpace=wrap;html=1;" parent="1" vertex="1">
                    <mxGeometry x="350" y="190" width="100" height="40" as="geometry"/>
                </mxCell>
                <mxCell id="17" value="HondaBike" style="rounded=0;whiteSpace=wrap;html=1;" parent="1" vertex="1">
                    <mxGeometry x="190.47" y="190" width="99.53" height="40" as="geometry"/>
                </mxCell>
                <mxCell id="34" value="BMWCar" style="rounded=0;whiteSpace=wrap;html=1;" parent="1" vertex="1">
                    <mxGeometry x="355.23" y="530" width="94.77" height="40" as="geometry"/>
                </mxCell>
                <mxCell id="35" value="BMWBike" style="rounded=0;whiteSpace=wrap;html=1;" parent="1" vertex="1">
                    <mxGeometry x="190" y="510" width="100" height="40" as="geometry"/>
                </mxCell>
                <mxCell id="38" value="Abstract Bike" style="rounded=0;whiteSpace=wrap;html=1;" parent="1" vertex="1">
                    <mxGeometry x="190" y="340" width="100" height="40" as="geometry"/>
                </mxCell>
                <mxCell id="39" value="Abstract Car" style="rounded=0;whiteSpace=wrap;html=1;" parent="1" vertex="1">
                    <mxGeometry x="350" y="340" width="100" height="40" as="geometry"/>
                </mxCell>
                <mxCell id="67" value="" style="triangle;whiteSpace=wrap;html=1;rotation=90;" parent="1" vertex="1">
                    <mxGeometry x="575" y="350" width="10" height="10" as="geometry"/>
                </mxCell>
                <mxCell id="68" value="" style="triangle;whiteSpace=wrap;html=1;rotation=-90;" parent="1" vertex="1">
                    <mxGeometry x="574.53" y="440" width="10.94" height="10" as="geometry"/>
                </mxCell>
                <mxCell id="72" value="" style="triangle;whiteSpace=wrap;html=1;rotation=90;fillColor=none;" parent="1" vertex="1">
                    <mxGeometry x="235" y="330" width="10" height="10" as="geometry"/>
                </mxCell>
                <mxCell id="88" value="" style="endArrow=none;dashed=1;html=1;" parent="1" edge="1">
                    <mxGeometry width="50" height="50" relative="1" as="geometry">
                        <mxPoint x="580" y="500" as="sourcePoint"/>
                        <mxPoint x="580" y="450" as="targetPoint"/>
                    </mxGeometry>
                </mxCell>
                <mxCell id="89" value="" style="endArrow=none;dashed=1;html=1;" parent="1" edge="1">
                    <mxGeometry width="50" height="50" relative="1" as="geometry">
                        <mxPoint x="580" y="350" as="sourcePoint"/>
                        <mxPoint x="579.8" y="320" as="targetPoint"/>
                    </mxGeometry>
                </mxCell>
                <mxCell id="90" value="" style="endArrow=none;dashed=1;html=1;" parent="1" edge="1">
                    <mxGeometry width="50" height="50" relative="1" as="geometry">
                        <mxPoint x="240" y="600" as="sourcePoint"/>
                        <mxPoint x="585.47" y="580" as="targetPoint"/>
                        <Array as="points">
                            <mxPoint x="240" y="680"/>
                            <mxPoint x="585" y="680"/>
                        </Array>
                    </mxGeometry>
                </mxCell>
                <mxCell id="91" value="" style="endArrow=none;dashed=1;html=1;" parent="1" edge="1">
                    <mxGeometry width="50" height="50" relative="1" as="geometry">
                        <mxPoint x="400" y="680" as="sourcePoint"/>
                        <mxPoint x="400" y="620" as="targetPoint"/>
                    </mxGeometry>
                </mxCell>
                <mxCell id="96" value="" style="endArrow=none;dashed=1;html=1;" parent="1" edge="1">
                    <mxGeometry width="50" height="50" relative="1" as="geometry">
                        <mxPoint x="580" y="240" as="sourcePoint"/>
                        <mxPoint x="240" y="190" as="targetPoint"/>
                        <Array as="points">
                            <mxPoint x="580" y="160"/>
                            <mxPoint x="240" y="160"/>
                        </Array>
                    </mxGeometry>
                </mxCell>
                <mxCell id="97" value="" style="endArrow=none;dashed=1;html=1;" parent="1" edge="1">
                    <mxGeometry width="50" height="50" relative="1" as="geometry">
                        <mxPoint x="400" y="190" as="sourcePoint"/>
                        <mxPoint x="400" y="160" as="targetPoint"/>
                    </mxGeometry>
                </mxCell>
                <mxCell id="102" value="" style="endArrow=none;html=1;entryX=0.5;entryY=1;entryDx=0;entryDy=0;" parent="1" edge="1" target="129">
                    <mxGeometry width="50" height="50" relative="1" as="geometry">
                        <mxPoint x="230" y="620" as="sourcePoint"/>
                        <mxPoint x="239.52999999999997" y="640" as="targetPoint"/>
                    </mxGeometry>
                </mxCell>
                <mxCell id="103" value="" style="endArrow=none;html=1;entryX=0.5;entryY=1;entryDx=0;entryDy=0;" parent="1" edge="1" target="129">
                    <mxGeometry width="50" height="50" relative="1" as="geometry">
                        <mxPoint x="250" y="620" as="sourcePoint"/>
                        <mxPoint x="239.52999999999997" y="640" as="targetPoint"/>
                    </mxGeometry>
                </mxCell>
                <mxCell id="104" value="" style="endArrow=none;html=1;" parent="1" edge="1">
                    <mxGeometry width="50" height="50" relative="1" as="geometry">
                        <mxPoint x="240" y="190" as="sourcePoint"/>
                        <mxPoint x="250" y="170" as="targetPoint"/>
                        <Array as="points">
                            <mxPoint x="240" y="190"/>
                        </Array>
                    </mxGeometry>
                </mxCell>
                <mxCell id="105" value="" style="endArrow=none;html=1;" parent="1" edge="1">
                    <mxGeometry width="50" height="50" relative="1" as="geometry">
                        <mxPoint x="240" y="190" as="sourcePoint"/>
                        <mxPoint x="230" y="170" as="targetPoint"/>
                    </mxGeometry>
                </mxCell>
                <mxCell id="106" value="" style="endArrow=none;html=1;" parent="1" edge="1">
                    <mxGeometry width="50" height="50" relative="1" as="geometry">
                        <mxPoint x="400" y="190" as="sourcePoint"/>
                        <mxPoint x="410" y="170" as="targetPoint"/>
                    </mxGeometry>
                </mxCell>
                <mxCell id="107" value="" style="endArrow=none;html=1;" parent="1" edge="1">
                    <mxGeometry width="50" height="50" relative="1" as="geometry">
                        <mxPoint x="400" y="190" as="sourcePoint"/>
                        <mxPoint x="390" y="170" as="targetPoint"/>
                    </mxGeometry>
                </mxCell>
                <mxCell id="108" value="+type: str&lt;br&gt;+brand: str&lt;br&gt;+speed: number" style="rounded=0;whiteSpace=wrap;html=1;" parent="1" vertex="1">
                    <mxGeometry x="350" y="230" width="100" height="50" as="geometry"/>
                </mxCell>
                <mxCell id="112" value="" style="triangle;whiteSpace=wrap;html=1;rotation=90;fillColor=none;" vertex="1" parent="1">
                    <mxGeometry x="395" y="330" width="10" height="10" as="geometry"/>
                </mxCell>
                <mxCell id="115" value="" style="triangle;whiteSpace=wrap;html=1;rotation=-90;fillColor=none;" vertex="1" parent="1">
                    <mxGeometry x="235.47" y="470" width="10" height="10" as="geometry"/>
                </mxCell>
                <mxCell id="116" value="" style="triangle;whiteSpace=wrap;html=1;rotation=-90;fillColor=none;" vertex="1" parent="1">
                    <mxGeometry x="395" y="470" width="10" height="10" as="geometry"/>
                </mxCell>
                <mxCell id="121" value="+type: str&lt;br&gt;+brand: str&lt;br&gt;+speed: number" style="rounded=0;whiteSpace=wrap;html=1;" vertex="1" parent="1">
                    <mxGeometry x="190.47" y="230" width="100" height="50" as="geometry"/>
                </mxCell>
                <mxCell id="126" value="+type: str&lt;br&gt;+brand: str&lt;br&gt;+speed: number" style="rounded=0;whiteSpace=wrap;html=1;" vertex="1" parent="1">
                    <mxGeometry x="190.47" y="380" width="100" height="60" as="geometry"/>
                </mxCell>
                <mxCell id="128" value="+type: str&lt;br&gt;+brand: str&lt;br&gt;+speed: number" style="rounded=0;whiteSpace=wrap;html=1;" vertex="1" parent="1">
                    <mxGeometry x="355.23" y="570" width="94.77" height="50" as="geometry"/>
                </mxCell>
                <mxCell id="129" value="+type: str&lt;br&gt;+brand: str&lt;br&gt;+speed: number" style="rounded=0;whiteSpace=wrap;html=1;" vertex="1" parent="1">
                    <mxGeometry x="190.24" y="550" width="100" height="50" as="geometry"/>
                </mxCell>
                <mxCell id="131" value="" style="endArrow=none;html=1;" edge="1" parent="1">
                    <mxGeometry width="50" height="50" relative="1" as="geometry">
                        <mxPoint x="400" y="620" as="sourcePoint"/>
                        <mxPoint x="410" y="640" as="targetPoint"/>
                    </mxGeometry>
                </mxCell>
                <mxCell id="132" value="" style="endArrow=none;html=1;" edge="1" parent="1">
                    <mxGeometry width="50" height="50" relative="1" as="geometry">
                        <mxPoint x="400" y="620" as="sourcePoint"/>
                        <mxPoint x="390" y="640" as="targetPoint"/>
                    </mxGeometry>
                </mxCell>
                <mxCell id="135" value="" style="endArrow=none;html=1;exitX=0;exitY=0.5;exitDx=0;exitDy=0;entryX=0.5;entryY=1;entryDx=0;entryDy=0;" edge="1" parent="1" source="72" target="121">
                    <mxGeometry width="50" height="50" relative="1" as="geometry">
                        <mxPoint x="240" y="360" as="sourcePoint"/>
                        <mxPoint x="240" y="310" as="targetPoint"/>
                    </mxGeometry>
                </mxCell>
                <mxCell id="136" value="" style="endArrow=none;html=1;exitX=0;exitY=0.5;exitDx=0;exitDy=0;entryX=0.5;entryY=1;entryDx=0;entryDy=0;" edge="1" parent="1" target="108">
                    <mxGeometry width="50" height="50" relative="1" as="geometry">
                        <mxPoint x="399.88" y="329.99999999999994" as="sourcePoint"/>
                        <mxPoint x="399.88" y="310" as="targetPoint"/>
                    </mxGeometry>
                </mxCell>
                <mxCell id="137" value="" style="endArrow=none;html=1;entryX=0.5;entryY=1;entryDx=0;entryDy=0;exitX=0.473;exitY=-0.01;exitDx=0;exitDy=0;exitPerimeter=0;" edge="1" parent="1" source="34">
                    <mxGeometry width="50" height="50" relative="1" as="geometry">
                        <mxPoint x="399.83" y="499.99999999999994" as="sourcePoint"/>
                        <mxPoint x="399.83" y="480" as="targetPoint"/>
                    </mxGeometry>
                </mxCell>
                <mxCell id="138" value="" style="endArrow=none;html=1;exitX=0.5;exitY=0;exitDx=0;exitDy=0;entryX=0.5;entryY=1;entryDx=0;entryDy=0;" edge="1" parent="1" source="35">
                    <mxGeometry width="50" height="50" relative="1" as="geometry">
                        <mxPoint x="239.82999999999993" y="500" as="sourcePoint"/>
                        <mxPoint x="239.82999999999993" y="480" as="targetPoint"/>
                    </mxGeometry>
                </mxCell>
                <mxCell id="139" value="+getInfo(): str" style="rounded=0;whiteSpace=wrap;html=1;fillColor=none;" vertex="1" parent="1">
                    <mxGeometry x="190" y="440" width="100" height="30" as="geometry"/>
                </mxCell>
                <mxCell id="140" value="+type: str&lt;br&gt;+brand: str&lt;br&gt;+speed: number" style="rounded=0;whiteSpace=wrap;html=1;" vertex="1" parent="1">
                    <mxGeometry x="350" y="380" width="100" height="60" as="geometry"/>
                </mxCell>
                <mxCell id="141" value="+getInfo(): str" style="rounded=0;whiteSpace=wrap;html=1;fillColor=none;" vertex="1" parent="1">
                    <mxGeometry x="350" y="440" width="100" height="30" as="geometry"/>
                </mxCell>
            </root>
        </mxGraphModel>
    </diagram>
</mxfile>